<?xml version="1.0" encoding="utf-8"?>
<!-- Generator: Adobe Illustrator 19.1.0, SVG Export Plug-In . SVG Version: 6.00 Build 0)  -->
<svg version="1.1" xmlns="http://www.w3.org/2000/svg" xmlns:xlink="http://www.w3.org/1999/xlink" x="0px" y="0px" width="113px"
	 height="113px" viewBox="0 0 113 113" style="enable-background:new 0 0 113 113;" xml:space="preserve">
<style type="text/css">
	.st0{fill:#FFFFFF;stroke:#000000;stroke-width:5;stroke-miterlimit:10;}
</style>
<g id="Layer_1">
	<rect x="2.5" y="2.5" class="st0" width="108" height="108"/>
</g>
<g id="Capa_1">
	<g>
		<path id="Behance" d="M87.2,36.9H68.7v-4.6h18.5L87.2,36.9C87.2,36.9,87.2,36.9,87.2,36.9z M56.4,55.7c1.2,1.8,1.8,4.1,1.8,6.7
			c0,2.7-0.7,5.2-2,7.3c-0.9,1.4-2,2.6-3.2,3.6c-1.5,1.1-3.2,1.9-5.2,2.3c-2,0.4-4.2,0.6-6.5,0.6H20.5V30.4h22.2
			c5.6,0.1,9.6,1.7,11.9,4.9c1.4,2,2.1,4.3,2.1,7c0,2.8-0.7,5.1-2.1,6.8c-0.8,1-2,1.8-3.5,2.6C53.4,52.5,55.2,53.9,56.4,55.7z
			 M31.1,48.5h9.7c2,0,3.6-0.4,4.9-1.1c1.2-0.8,1.9-2.1,1.9-4c0-2.1-0.8-3.6-2.5-4.2c-1.4-0.5-3.2-0.7-5.4-0.7h-8.6V48.5z
			 M48.5,61.8c0-2.4-1-4-2.9-4.9c-1.1-0.5-2.6-0.8-4.6-0.8h-9.9v12.2h9.7c2,0,3.5-0.3,4.7-0.8C47.5,66.5,48.5,64.6,48.5,61.8z
			 M94,54.3c0.2,1.5,0.3,3.7,0.3,6.5h-24c0.1,3.3,1.3,5.6,3.4,6.9c1.3,0.8,2.9,1.2,4.7,1.2c2,0,3.5-0.5,4.8-1.5
			c0.7-0.5,1.3-1.3,1.8-2.3h8.8c-0.2,2-1.3,3.9-3.2,5.9c-2.9,3.2-7.1,4.8-12.4,4.8c-4.4,0-8.2-1.4-11.6-4c-3.3-2.7-5-7.1-5-13.2
			c0-5.7,1.5-10.1,4.5-13.1c3-3,6.9-4.6,11.8-4.6c2.9,0,5.4,0.5,7.7,1.5c2.3,1,4.2,2.6,5.7,4.9C92.8,49.5,93.6,51.7,94,54.3z
			 M85.4,55.2c-0.2-2.3-0.9-4-2.3-5.2c-1.4-1.2-3.1-1.8-5.1-1.8c-2.2,0-3.9,0.6-5.1,1.9c-1.2,1.2-2,2.9-2.3,5.1L85.4,55.2L85.4,55.2
			z"/>
	</g>
</g>
</svg>
