<svg xmlns="http://www.w3.org/2000/svg" width="113" height="113" viewBox="-423 224 113 113" enable-background="new -423 224 113 113"><style type="text/css">.st0{fill:none;stroke:#F4EB84;stroke-width:5;stroke-miterlimit:10;} .st1{fill:#FFFFFF;}</style><path class="st0" d="M-420.5 226.5h108v108h-108z" id="Layer_1_1_"/><path id="Behance" class="st1" d="M-335.8 260.9h-18.5v-4.6h18.5v4.6zm-30.8 18.8c1.2 1.8 1.8 4.1 1.8 6.7 0 2.7-.7 5.2-2 7.3-.9 1.4-2 2.6-3.2 3.6-1.5 1.1-3.2 1.9-5.2 2.3s-4.2.6-6.5.6h-20.8v-45.8h22.2c5.6.1 9.6 1.7 11.9 4.9 1.4 2 2.1 4.3 2.1 7 0 2.8-.7 5.1-2.1 6.8-.8 1-2 1.8-3.5 2.6 2.3.8 4.1 2.2 5.3 4zm-25.3-7.2h9.7c2 0 3.6-.4 4.9-1.1 1.2-.8 1.9-2.1 1.9-4 0-2.1-.8-3.6-2.5-4.2-1.4-.5-3.2-.7-5.4-.7h-8.6v10zm17.4 13.3c0-2.4-1-4-2.9-4.9-1.1-.5-2.6-.8-4.6-.8h-9.9v12.2h9.7c2 0 3.5-.3 4.7-.8 2-1 3-2.9 3-5.7zm45.5-7.5c.2 1.5.3 3.7.3 6.5h-24c.1 3.3 1.3 5.6 3.4 6.9 1.3.8 2.9 1.2 4.7 1.2 2 0 3.5-.5 4.8-1.5.7-.5 1.3-1.3 1.8-2.3h8.8c-.2 2-1.3 3.9-3.2 5.9-2.9 3.2-7.1 4.8-12.4 4.8-4.4 0-8.2-1.4-11.6-4-3.3-2.7-5-7.1-5-13.2 0-5.7 1.5-10.1 4.5-13.1s6.9-4.6 11.8-4.6c2.9 0 5.4.5 7.7 1.5s4.2 2.6 5.7 4.9c1.5 2.2 2.3 4.4 2.7 7zm-8.6.9c-.2-2.3-.9-4-2.3-5.2s-3.1-1.8-5.1-1.8c-2.2 0-3.9.6-5.1 1.9-1.2 1.2-2 2.9-2.3 5.1h14.8z"/></svg>