<?xml version="1.0" encoding="utf-8"?>
<!-- Generator: Adobe Illustrator 19.1.0, SVG Export Plug-In . SVG Version: 6.00 Build 0)  -->
<svg version="1.1" id="Layer_1" xmlns="http://www.w3.org/2000/svg" xmlns:xlink="http://www.w3.org/1999/xlink" x="0px" y="0px"
	 width="113px" height="113px" viewBox="-423 224 113 113" style="enable-background:new -423 224 113 113;" xml:space="preserve">
<style type="text/css">
	.st0{fill:none;stroke:#F4EB84;stroke-width:5;stroke-miterlimit:10;}
	.st1{fill:#FFFFFF;}
</style>
<g id="Layer_1_1_">
	<rect x="-420.5" y="226.5" class="st0" width="108" height="108"/>
</g>
<g id="Capa_1">
	<g>
		<path id="Facebook" class="st1" d="M-373.2,263.6c0,1.3,0,7,0,7h-5.1v8.5h5.1v25.3h10.5v-25.3h7c0,0,0.7-4.1,1-8.5c-0.9,0-8,0-8,0
			s0-4.9,0-5.8c0-0.9,1.1-2,2.3-2c1.1,0,3.5,0,5.7,0c0-1.2,0-5.2,0-8.9c-2.9,0-6.3,0-7.8,0C-373.4,253.8-373.2,262.3-373.2,263.6z"
			/>
	</g>
</g>
</svg>
