<svg xmlns="http://www.w3.org/2000/svg" width="113" height="113" viewBox="-423 224 113 113" enable-background="new -423 224 113 113"><style type="text/css">.st0{fill:none;stroke:#F4EB84;stroke-width:5;stroke-miterlimit:10;} .st1{fill:#FFFFFF;}</style><path class="st0" d="M-420.5 226.5h108v108h-108z" id="Layer_1_1_"/><path id="LinkedIn" class="st1" d="M-342.6 282.5v17.7h-10.2v-16.5c0-4.1-1.5-7-5.2-7-2.8 0-4.5 1.9-5.3 3.7-.3.7-.3 1.6-.3 2.5v17.2h-10.3s.1-27.9 0-30.8h10.2v4.4s0 .1-.1.1h.1v-.1c1.4-2.1 3.8-5.1 9.2-5.1 6.8 0 11.9 4.4 11.9 13.9zm-42-28c-3.5 0-5.8 2.3-5.8 5.3s2.2 5.3 5.7 5.3h.1c3.6 0 5.8-2.4 5.8-5.3-.1-3-2.3-5.3-5.8-5.3zm-5.2 45.7h10.2v-30.8h-10.2v30.8z"/></svg>