<?xml version="1.0" encoding="utf-8"?>
<!-- Generator: Adobe Illustrator 19.1.0, SVG Export Plug-In . SVG Version: 6.00 Build 0)  -->
<svg version="1.1" id="Layer_1" xmlns="http://www.w3.org/2000/svg" xmlns:xlink="http://www.w3.org/1999/xlink" x="0px" y="0px"
	 width="113px" height="113px" viewBox="-423 224 113 113" style="enable-background:new -423 224 113 113;" xml:space="preserve">
<style type="text/css">
	.st0{fill:none;stroke:#000000;stroke-width:5;stroke-miterlimit:10;}
</style>
<g id="Layer_1_1_">
	<rect x="-420.5" y="226.5" class="st0" width="108" height="108"/>
</g>
<g id="Capa_1">
	<g>
		<path id="LinkedIn" d="M-342.6,282.5v17.7h-10.2v-16.5c0-4.1-1.5-7-5.2-7c-2.8,0-4.5,1.9-5.3,3.7c-0.3,0.7-0.3,1.6-0.3,2.5v17.2
			h-10.3c0,0,0.1-27.9,0-30.8h10.2v4.4c0,0,0,0.1-0.1,0.1h0.1v-0.1c1.4-2.1,3.8-5.1,9.2-5.1C-347.7,268.6-342.6,273-342.6,282.5z
			 M-384.6,254.5c-3.5,0-5.8,2.3-5.8,5.3s2.2,5.3,5.7,5.3h0.1c3.6,0,5.8-2.4,5.8-5.3C-378.9,256.8-381.1,254.5-384.6,254.5z
			 M-389.8,300.2h10.2v-30.8h-10.2V300.2z"/>
	</g>
</g>
</svg>
