<?xml version="1.0" encoding="utf-8"?>
<!-- Generator: Adobe Illustrator 19.1.0, SVG Export Plug-In . SVG Version: 6.00 Build 0)  -->
<svg version="1.1" id="Layer_1" xmlns="http://www.w3.org/2000/svg" xmlns:xlink="http://www.w3.org/1999/xlink" x="0px" y="0px"
	 width="113px" height="113px" viewBox="0 0 113 113" style="enable-background:new 0 0 113 113;" xml:space="preserve">
<style type="text/css">
	.st0{fill:#F4EB84;}
	.st1{fill:#FFFFFF;}
</style>
<g>
	<g id="Layer_1_3_">
		<path class="st0" d="M113,113H0V0h113V113z M5,108h103V5H5V108z"/>
	</g>
	<g>
		<path class="st1" d="M87.1,37.8c-2.3,1-4.7,1.7-7.3,2c2.6-1.6,4.6-4.1,5.6-7c-2.5,1.5-5.2,2.5-8.1,3.1c-2.3-2.5-5.6-4-9.3-4
			c-7,0-12.7,5.7-12.7,12.7c0,1,0.1,2,0.3,2.9c-10.6-0.5-20-5.6-26.2-13.3c-1.1,1.9-1.7,4.1-1.7,6.4c0,4.4,2.2,8.3,5.7,10.6
			c-2.1-0.1-4.1-0.6-5.8-1.6c0,0.1,0,0.1,0,0.2c0,6.2,4.4,11.3,10.2,12.5c-1.1,0.3-2.2,0.4-3.4,0.4c-0.8,0-1.6-0.1-2.4-0.2
			c1.6,5.1,6.3,8.7,11.9,8.8c-4.4,3.4-9.8,5.5-15.8,5.5c-1,0-2-0.1-3-0.2c5.6,3.6,12.3,5.7,19.5,5.7c23.4,0,36.2-19.4,36.2-36.2
			c0-0.6,0-1.1,0-1.6C83.2,42.6,85.4,40.4,87.1,37.8z"/>
	</g>
</g>
</svg>
